<svg preserveAspectRatio="none" overflow="visible" style="display: block;" width="129.7" height="40" viewBox="0 0 129.7 40" fill="none" xmlns="http://www.w3.org/2000/svg">
<g id="Linarc Logo">
<g id="Vector">
<path d="M32.7957 5.11812H30.6459V26.1182H32.7957V5.11812Z" fill="#D9DCF9"/>
<path d="M32.5761 5.33791H30.8655V25.8984H32.5761V5.33791Z" fill="#D9DCF9"/>
<path d="M105.757 26.2009C103.039 26.2009 100.292 25.0373 98.4081 23.0875C96.1213 20.7214 94.9947 17.1606 95.4727 13.7964C96.0541 9.70291 98.9585 6.17057 102.7 5.00433C103.574 4.73282 104.483 4.59317 105.403 4.59317C109.398 4.59317 112.995 7.10149 114.354 10.8381L114.429 11.045L112.411 11.7897L112.336 11.5829C111.287 8.697 108.506 6.75758 105.419 6.75758C104.711 6.75758 104.01 6.8636 103.338 7.07305C100.421 7.98329 98.0619 10.8743 97.6019 14.1067C97.2169 16.8219 98.1162 19.687 99.9508 21.5851C101.439 23.1263 103.605 24.0442 105.742 24.0442C106.248 24.0442 106.749 23.9926 107.232 23.8917C109.834 23.3409 112.039 21.2851 112.718 18.7742L112.775 18.5622L114.85 19.1311L114.793 19.3432C113.909 22.6169 111.049 25.2959 107.674 26.0096C107.054 26.1415 106.411 26.2062 105.757 26.2062V26.2009Z" fill="#D9DCF9"/>
<path d="M105.757 25.9786C103.121 25.9786 100.442 24.8744 98.5658 22.9323C96.3229 20.6128 95.2221 17.1244 95.6898 13.8248C96.2583 9.81409 99.1032 6.35159 102.765 5.2112C107.377 3.77344 112.483 6.3309 114.147 10.9105L112.54 11.5027C111.183 7.77124 107.026 5.687 103.271 6.85842C100.274 7.79192 97.8526 10.758 97.3823 14.0705C96.987 16.8529 97.9094 19.7879 99.7906 21.7325C101.718 23.7262 104.656 24.6546 107.274 24.1012C109.956 23.5349 112.227 21.4144 112.928 18.826L114.579 19.2785C113.716 22.4747 110.922 25.089 107.628 25.7871C107.015 25.9164 106.388 25.9811 105.757 25.9811V25.9786Z" fill="#D9DCF9"/>
<path d="M19.3642 26.1182C16.8758 26.1182 14.85 24.0805 14.85 21.5722V5.07932H16.9999V21.5722C16.9999 22.8858 18.0593 23.9538 19.3642 23.9538H27.1497V26.1156H19.3642V26.1182Z" fill="#D9DCF9"/>
<path d="M26.9275 24.1761H19.3616C17.9379 24.1761 16.7777 23.01 16.7777 21.5747V5.30171H15.0671V21.5747C15.0671 23.959 16.9947 25.9009 19.3616 25.9009H26.9275V24.1761Z" fill="#D9DCF9"/>
<path d="M79.8965 26.1828V11.1407C79.8965 7.61608 82.7441 4.74833 86.2454 4.74833H94.3901V6.91014H86.2454C83.9301 6.91014 82.0464 8.80819 82.0464 11.1381V26.1802H79.8965V26.1828Z" fill="#D9DCF9"/>
<path d="M81.8267 11.1407C81.8267 8.68665 83.8087 6.69293 86.2454 6.69293H94.1704V4.97072H86.2454C82.8655 4.97072 80.1162 7.74022 80.1162 11.1433V25.9656H81.8267V11.1407Z" fill="#D9DCF9"/>
<path d="M74.266 26.1182L66.9482 9.81928L59.558 26.1182H57.2195L66.9508 4.29321L76.5994 26.1182H74.266Z" fill="#D9DCF9"/>
<path d="M59.4159 25.8984C61.9275 20.3594 64.4391 14.823 66.9508 9.28399C69.4366 14.823 71.9224 20.3594 74.4081 25.8984H76.2609C73.1575 18.8777 70.0541 11.8544 66.9482 4.83366C63.819 11.8544 60.6872 18.8777 57.558 25.8984H59.4159Z" fill="#D9DCF9"/>
<path d="M54.0851 26.0147C51.6304 23.1832 43.0154 13.1809 40.2789 9.98995V26.1182H38.1291V25.8984C38.1032 21.9911 38.0929 18.0424 38.0955 14.161C38.0955 11.0967 38.1084 7.95743 38.1291 4.83108V4.24667L52.3151 20.6671V5.11812H54.465V5.33791C54.465 5.53961 54.465 25.6268 54.4676 25.8699V26.4621L54.0826 26.0147H54.0851Z" fill="#D9DCF9"/>
<path d="M54.2505 25.8699C54.2505 25.6217 54.2479 5.33533 54.2479 5.33533H52.5373V21.2541C47.8087 15.7797 43.08 10.3054 38.3513 4.83108C38.3306 7.92639 38.3203 11.0372 38.3177 14.161C38.3151 18.0941 38.3255 22.0066 38.3487 25.8958H40.0593V9.3926C42.2324 11.932 51.7053 22.9323 54.2505 25.8674V25.8699Z" fill="#D9DCF9"/>
<path d="M32.7957 5.11812H30.6459V26.1182H32.7957V5.11812Z" fill="#D9DCF9"/>
<path d="M32.5761 5.33791H30.8655V25.8984H32.5761V5.33791Z" fill="#D9DCF9"/>
<path d="M105.757 26.2009C103.039 26.2009 100.292 25.0373 98.4081 23.0875C96.1213 20.7214 94.9947 17.1606 95.4727 13.7964C96.0541 9.70291 98.9585 6.17057 102.7 5.00433C103.574 4.73282 104.483 4.59317 105.403 4.59317C109.398 4.59317 112.995 7.10149 114.354 10.8381L114.429 11.045L112.411 11.7897L112.336 11.5829C111.287 8.697 108.506 6.75758 105.419 6.75758C104.711 6.75758 104.01 6.8636 103.338 7.07305C100.421 7.98329 98.0619 10.8743 97.6019 14.1067C97.2169 16.8219 98.1162 19.687 99.9508 21.5851C101.439 23.1263 103.605 24.0442 105.742 24.0442C106.248 24.0442 106.749 23.9926 107.232 23.8917C109.834 23.3409 112.039 21.2851 112.718 18.7742L112.775 18.5622L114.85 19.1311L114.793 19.3432C113.909 22.6169 111.049 25.2959 107.674 26.0096C107.054 26.1415 106.411 26.2062 105.757 26.2062V26.2009Z" fill="#D9DCF9"/>
<path d="M105.757 25.9786C103.121 25.9786 100.442 24.8744 98.5658 22.9323C96.3229 20.6128 95.2221 17.1244 95.6898 13.8248C96.2583 9.81409 99.1032 6.35159 102.765 5.2112C107.377 3.77344 112.483 6.3309 114.147 10.9105L112.54 11.5027C111.183 7.77124 107.026 5.687 103.271 6.85842C100.274 7.79192 97.8526 10.758 97.3823 14.0705C96.987 16.8529 97.9094 19.7879 99.7906 21.7325C101.718 23.7262 104.656 24.6546 107.274 24.1012C109.956 23.5349 112.227 21.4144 112.928 18.826L114.579 19.2785C113.716 22.4747 110.922 25.089 107.628 25.7871C107.015 25.9164 106.388 25.9811 105.757 25.9811V25.9786Z" fill="#D9DCF9"/>
<path d="M19.3642 26.1182C16.8758 26.1182 14.85 24.0805 14.85 21.5722V5.07932H16.9999V21.5722C16.9999 22.8858 18.0593 23.9538 19.3642 23.9538H27.1497V26.1156H19.3642V26.1182Z" fill="#D9DCF9"/>
<path d="M26.9275 24.1761H19.3616C17.9379 24.1761 16.7777 23.01 16.7777 21.5747V5.30171H15.0671V21.5747C15.0671 23.959 16.9947 25.9009 19.3616 25.9009H26.9275V24.1761Z" fill="#D9DCF9"/>
<path d="M79.8965 26.1828V11.1407C79.8965 7.61608 82.7441 4.74833 86.2454 4.74833H94.3901V6.91014H86.2454C83.9301 6.91014 82.0464 8.80819 82.0464 11.1381V26.1802H79.8965V26.1828Z" fill="#D9DCF9"/>
<path d="M81.8267 11.1407C81.8267 8.68665 83.8087 6.69293 86.2454 6.69293H94.1704V4.97072H86.2454C82.8655 4.97072 80.1162 7.74022 80.1162 11.1433V25.9656H81.8267V11.1407Z" fill="#D9DCF9"/>
<path d="M74.266 26.1182L66.9482 9.81928L59.558 26.1182H57.2195L66.9508 4.29321L76.5994 26.1182H74.266Z" fill="#D9DCF9"/>
<path d="M59.4159 25.8984C61.9275 20.3594 64.4391 14.823 66.9508 9.28399C69.4366 14.823 71.9224 20.3594 74.4081 25.8984H76.2609C73.1575 18.8777 70.0541 11.8544 66.9482 4.83366C63.819 11.8544 60.6872 18.8777 57.558 25.8984H59.4159Z" fill="#D9DCF9"/>
<path d="M54.0851 26.0147C51.6304 23.1832 43.0154 13.1809 40.2789 9.98995V26.1182H38.1291V25.8984C38.1032 21.9911 38.0929 18.0424 38.0955 14.161C38.0955 11.0967 38.1084 7.95743 38.1291 4.83108V4.24667L52.3151 20.6671V5.11812H54.465V5.33791C54.465 5.53961 54.465 25.6268 54.4676 25.8699V26.4621L54.0826 26.0147H54.0851Z" fill="#D9DCF9"/>
<path d="M54.2505 25.8699C54.2505 25.6217 54.2479 5.33533 54.2479 5.33533H52.5373V21.2541C47.8087 15.7797 43.08 10.3054 38.3513 4.83108C38.3306 7.92639 38.3203 11.0372 38.3177 14.161C38.3151 18.0941 38.3255 22.0066 38.3487 25.8958H40.0593V9.3926C42.2324 11.932 51.7053 22.9323 54.2505 25.8674V25.8699Z" fill="#D9DCF9"/>
<path d="M59.1342 34.2975C58.7828 34.2975 58.4779 34.2147 58.2169 34.0467C57.9559 33.8785 57.7544 33.6433 57.6097 33.3381C57.4676 33.033 57.3952 32.6736 57.3952 32.2572C57.3952 31.8408 57.4676 31.4737 57.6097 31.1685C57.7518 30.8634 57.9559 30.6281 58.2169 30.4652C58.4779 30.2997 58.7854 30.2195 59.1342 30.2195C59.4831 30.2195 59.7957 30.3074 60.049 30.4858C60.3022 30.6643 60.4727 30.9047 60.558 31.2048H60.4702V28.7947C60.4702 28.6861 60.4986 28.6033 60.5554 28.549C60.6123 28.4947 60.695 28.4637 60.8009 28.4637C60.9043 28.4637 60.9818 28.4921 61.0386 28.549C61.0955 28.6059 61.1239 28.6887 61.1239 28.7947V33.9406C61.1239 34.0493 61.0955 34.1319 61.0438 34.1915C60.9895 34.2509 60.9094 34.2793 60.8009 34.2793C60.6924 34.2793 60.62 34.2509 60.5632 34.1915C60.5063 34.1319 60.4779 34.0493 60.4779 33.9406V33.1726L60.5658 33.2864C60.4805 33.5941 60.3074 33.8398 60.0516 34.0233C59.7957 34.207 59.4908 34.2975 59.1342 34.2975ZM59.2712 33.77C59.5141 33.77 59.726 33.7105 59.9094 33.5915C60.0929 33.4725 60.235 33.2993 60.3332 33.0743C60.434 32.8468 60.4831 32.5753 60.4831 32.2572C60.4831 31.7659 60.3746 31.3909 60.1549 31.1323C59.9353 30.8737 59.6407 30.7444 59.2686 30.7444C59.0205 30.7444 58.8061 30.8014 58.6252 30.9177C58.4443 31.034 58.3048 31.2048 58.204 31.4271C58.1032 31.6521 58.0541 31.9262 58.0541 32.2572C58.0541 32.7433 58.1652 33.1157 58.3849 33.3769C58.6045 33.6381 58.8991 33.77 59.266 33.77H59.2712Z" fill="#D9DCF9"/>
<path d="M64.9327 34.2975C64.5167 34.2975 64.1601 34.2147 63.8603 34.0518C63.5606 33.8863 63.3306 33.6536 63.1652 33.3511C62.9999 33.0485 62.9198 32.6865 62.9198 32.2675C62.9198 31.8486 62.9999 31.4996 63.1627 31.1944C63.3229 30.8892 63.5477 30.6513 63.8293 30.4781C64.111 30.3049 64.4391 30.2195 64.8112 30.2195C65.0748 30.2195 65.3125 30.2635 65.5218 30.354C65.7311 30.4445 65.912 30.5712 66.0593 30.7393C66.2066 30.9073 66.3203 31.1091 66.3978 31.347C66.4753 31.5848 66.5141 31.8512 66.5141 32.1486C66.5141 32.2339 66.4908 32.2986 66.4417 32.34C66.3926 32.3813 66.3229 32.3994 66.2324 32.3994H63.4185V31.9701H66.0774L65.9482 32.0762C65.9482 31.784 65.9043 31.5383 65.819 31.3367C65.7337 31.1349 65.6071 30.9798 65.4443 30.8712C65.2789 30.7625 65.0748 30.7083 64.8267 30.7083C64.5528 30.7083 64.3177 30.7729 64.1265 30.8996C63.9353 31.0263 63.7906 31.2022 63.695 31.4245C63.5968 31.6495 63.5503 31.9081 63.5503 32.2055V32.2546C63.5503 32.7511 63.6691 33.1287 63.9094 33.3873C64.1497 33.6459 64.4908 33.7752 64.9327 33.7752C65.1162 33.7752 65.297 33.7519 65.4779 33.7027C65.6588 33.6536 65.8345 33.5734 66.0076 33.4596C66.0826 33.4105 66.1523 33.3873 66.2143 33.3898C66.2764 33.3924 66.3255 33.4105 66.3642 33.4467C66.403 33.4829 66.4288 33.5243 66.4417 33.576C66.4547 33.6278 66.4495 33.682 66.4262 33.7415C66.403 33.801 66.3539 33.8527 66.2841 33.8967C66.1058 34.026 65.8965 34.1268 65.6536 34.1966C65.4107 34.2664 65.1704 34.3027 64.9353 34.3027L64.9327 34.2975Z" fill="#D9DCF9"/>
<path d="M69.5968 34.2975C69.3539 34.2975 69.111 34.269 68.8655 34.2096C68.62 34.15 68.3926 34.0467 68.1833 33.9019C68.1291 33.863 68.0929 33.8191 68.0696 33.7674C68.049 33.7156 68.0412 33.6639 68.049 33.6122C68.0567 33.5605 68.08 33.5166 68.1136 33.4777C68.1497 33.4389 68.1911 33.4157 68.2428 33.4079C68.2944 33.4002 68.3513 33.4131 68.4159 33.4441C68.6252 33.5734 68.8293 33.6639 69.0257 33.7156C69.2221 33.7674 69.4185 33.7932 69.6123 33.7932C69.9198 33.7932 70.1523 33.7363 70.3074 33.6225C70.465 33.5088 70.5425 33.3563 70.5425 33.1623C70.5425 33.0123 70.4908 32.8907 70.3901 32.8028C70.2867 32.7149 70.1265 32.6451 69.9043 32.596L69.1678 32.4331C68.8293 32.3632 68.5761 32.2417 68.4133 32.0684C68.2479 31.8952 68.1678 31.6728 68.1678 31.3961C68.1678 31.153 68.2324 30.9436 68.359 30.7677C68.4857 30.5919 68.664 30.4548 68.8965 30.3591C69.1291 30.2609 69.3978 30.2143 69.7053 30.2143C69.943 30.2143 70.1678 30.2453 70.3797 30.3074C70.5916 30.3695 70.7854 30.4677 70.9585 30.6022C71.0128 30.641 71.049 30.685 71.0671 30.7367C71.0851 30.7884 71.0877 30.8401 71.0748 30.8892C71.0619 30.941 71.036 30.9849 70.9973 31.0185C70.9585 31.0547 70.9146 31.0729 70.8603 31.0781C70.8061 31.0832 70.7492 31.0677 70.6898 31.0289C70.527 30.9202 70.3642 30.8427 70.1963 30.791C70.0283 30.7393 69.8655 30.7134 69.7027 30.7134C69.4004 30.7134 69.173 30.7729 69.0154 30.8918C68.8578 31.0108 68.7802 31.1659 68.7802 31.3625C68.7802 31.5125 68.8293 31.6366 68.9249 31.7349C69.0205 31.8331 69.173 31.903 69.3771 31.9443L70.1136 32.0994C70.465 32.1745 70.726 32.296 70.9017 32.4589C71.0774 32.6244 71.1652 32.8468 71.1652 33.1261C71.1652 33.4829 71.0231 33.7648 70.7363 33.9768C70.4495 34.1889 70.0696 34.2923 69.5968 34.2923V34.2975Z" fill="#D9DCF9"/>
<path d="M73.2919 29.3455C73.1575 29.3455 73.0516 29.3093 72.9766 29.2369C72.9017 29.1644 72.8629 29.0662 72.8629 28.9421C72.8629 28.818 72.9017 28.7145 72.9766 28.6473C73.0516 28.58 73.1575 28.5464 73.2919 28.5464C73.4262 28.5464 73.5373 28.58 73.6123 28.6473C73.6846 28.7145 73.7208 28.8128 73.7208 28.9421C73.7208 29.0714 73.6846 29.1644 73.6123 29.2369C73.5399 29.3093 73.434 29.3455 73.2919 29.3455ZM73.2919 34.2638C73.1833 34.2638 73.1032 34.2328 73.049 34.1708C72.9947 34.1087 72.9689 34.0207 72.9689 33.907V30.5971C72.9689 30.4833 72.9947 30.398 73.049 30.3385C73.1032 30.279 73.1833 30.2506 73.2919 30.2506C73.4004 30.2506 73.4753 30.2816 73.5348 30.3385C73.5942 30.3954 73.6226 30.4833 73.6226 30.5971V33.907C73.6226 34.0207 73.5942 34.1087 73.5373 34.1708C73.4805 34.2328 73.3978 34.2638 73.2919 34.2638Z" fill="#D9DCF9"/>
<path d="M77.3901 35.7533C77.1032 35.7533 76.8242 35.7197 76.5528 35.6525C76.2815 35.5852 76.0335 35.4792 75.8138 35.3318C75.7492 35.2931 75.7079 35.2491 75.6898 35.1948C75.6717 35.1405 75.6665 35.0887 75.6769 35.037C75.6872 34.9854 75.7131 34.9387 75.7492 34.9C75.788 34.8586 75.8319 34.8327 75.8836 34.8224C75.9353 34.812 75.987 34.8198 76.0412 34.8457C76.2789 34.9905 76.5037 35.0913 76.7208 35.1457C76.9353 35.1999 77.1497 35.2258 77.359 35.2258C77.7415 35.2258 78.0309 35.1224 78.2273 34.9181C78.4236 34.7138 78.5218 34.4164 78.5218 34.0286V33.1132H78.6019C78.5218 33.426 78.3487 33.6743 78.0877 33.8578C77.8267 34.0415 77.5193 34.1319 77.1704 34.1319C76.8216 34.1319 76.496 34.0493 76.2324 33.8863C75.9689 33.7208 75.7647 33.4907 75.6226 33.1933C75.4805 32.8959 75.4081 32.5546 75.4081 32.1667C75.4081 31.8745 75.4495 31.6108 75.5296 31.3703C75.6097 31.1297 75.7286 30.9255 75.881 30.7548C76.036 30.5841 76.2195 30.4522 76.4391 30.3591C76.6588 30.2661 76.9017 30.2169 77.1704 30.2169C77.527 30.2169 77.8345 30.3074 78.0929 30.4884C78.3513 30.6695 78.5193 30.9125 78.5942 31.2203L78.5141 31.3185V30.566C78.5141 30.4574 78.5425 30.3746 78.5994 30.3204C78.6562 30.2635 78.7363 30.235 78.8371 30.235C78.9456 30.235 79.0257 30.2635 79.08 30.3204C79.1342 30.3772 79.1601 30.46 79.1601 30.566V33.9406C79.1601 34.5379 79.0102 34.9905 78.7105 35.2956C78.4107 35.6007 77.9715 35.7533 77.3875 35.7533H77.3901ZM77.2944 33.6018C77.5477 33.6018 77.7673 33.545 77.9482 33.4286C78.1317 33.3122 78.2738 33.1468 78.372 32.9321C78.4727 32.7175 78.5218 32.4615 78.5218 32.1719C78.5218 31.7349 78.4107 31.3883 78.1911 31.1323C77.9689 30.8763 77.6717 30.747 77.2944 30.747C77.0464 30.747 76.8319 30.804 76.6485 30.9202C76.465 31.0366 76.3229 31.1996 76.2247 31.4142C76.1239 31.6263 76.0748 31.8797 76.0748 32.1693C76.0748 32.6063 76.1859 32.9554 76.4056 33.2139C76.6252 33.4725 76.9224 33.6018 77.2944 33.6018Z" fill="#D9DCF9"/>
<path d="M81.5218 34.2793C81.4133 34.2793 81.3332 34.2509 81.2789 34.1915C81.2247 34.1319 81.1988 34.0493 81.1988 33.9406V30.566C81.1988 30.4574 81.2247 30.3746 81.2789 30.3204C81.3332 30.2635 81.4107 30.235 81.5141 30.235C81.6174 30.235 81.695 30.2635 81.7518 30.3204C81.8087 30.3772 81.8371 30.46 81.8371 30.566V31.2616L81.7492 31.1633C81.8629 30.8505 82.0464 30.6151 82.3022 30.4548C82.558 30.2971 82.8526 30.2169 83.1885 30.2169C83.5012 30.2169 83.7622 30.2738 83.9689 30.3876C84.1756 30.5013 84.3306 30.6721 84.434 30.9022C84.5373 31.1323 84.589 31.4219 84.589 31.7711V33.9406C84.589 34.0493 84.5606 34.1319 84.5037 34.1915C84.4469 34.2509 84.3668 34.2793 84.266 34.2793C84.1575 34.2793 84.0748 34.2509 84.0205 34.1915C83.9637 34.1319 83.9353 34.0493 83.9353 33.9406V31.8124C83.9353 31.4452 83.8629 31.1763 83.7208 31.0082C83.5787 30.8376 83.3513 30.7522 83.0386 30.7522C82.6769 30.7522 82.3901 30.8634 82.1782 31.0884C81.9663 31.3133 81.8578 31.6108 81.8578 31.9831V33.9406C81.8578 34.1682 81.7466 34.2793 81.527 34.2793H81.5218Z" fill="#D9DCF9"/>
<path d="M90.819 34.2975C90.5761 34.2975 90.3332 34.269 90.0877 34.2096C89.8423 34.15 89.6149 34.0467 89.4056 33.9019C89.3513 33.863 89.3151 33.8191 89.2919 33.7674C89.2712 33.7156 89.2634 33.6639 89.2712 33.6122C89.2789 33.5605 89.3022 33.5166 89.3358 33.4777C89.372 33.4389 89.4133 33.4157 89.465 33.4079C89.5167 33.4002 89.5735 33.4131 89.6381 33.4441C89.8474 33.5734 90.0516 33.6639 90.2479 33.7156C90.4443 33.7674 90.6407 33.7932 90.8345 33.7932C91.142 33.7932 91.3745 33.7363 91.5296 33.6225C91.6872 33.5088 91.7647 33.3563 91.7647 33.1623C91.7647 33.0123 91.7131 32.8907 91.6123 32.8028C91.5089 32.7149 91.3487 32.6451 91.1265 32.596L90.3901 32.4331C90.0516 32.3632 89.7983 32.2417 89.6355 32.0684C89.4702 31.8952 89.3901 31.6728 89.3901 31.3961C89.3901 31.153 89.4547 30.9436 89.5813 30.7677C89.7079 30.5919 89.8862 30.4548 90.1187 30.3591C90.3513 30.2609 90.62 30.2143 90.9275 30.2143C91.1653 30.2143 91.3901 30.2453 91.6019 30.3074C91.8138 30.3695 92.0076 30.4677 92.1808 30.6022C92.235 30.641 92.2712 30.685 92.2893 30.7367C92.3074 30.7884 92.3099 30.8401 92.297 30.8892C92.2841 30.941 92.2583 30.9849 92.2195 31.0185C92.1808 31.0547 92.1368 31.0729 92.0826 31.0781C92.0283 31.0832 91.9715 31.0677 91.912 31.0289C91.7492 30.9202 91.5864 30.8427 91.4185 30.791C91.2505 30.7393 91.0877 30.7134 90.9249 30.7134C90.6226 30.7134 90.3952 30.7729 90.2376 30.8918C90.08 31.0108 90.0025 31.1659 90.0025 31.3625C90.0025 31.5125 90.0516 31.6366 90.1472 31.7349C90.2428 31.8331 90.3952 31.903 90.5994 31.9443L91.3358 32.0994C91.6872 32.1745 91.9482 32.296 92.1239 32.4589C92.2996 32.6244 92.3875 32.8468 92.3875 33.1261C92.3875 33.4829 92.2454 33.7648 91.9585 33.9768C91.6717 34.1889 91.2919 34.2923 90.819 34.2923V34.2975Z" fill="#D9DCF9"/>
<path d="M95.726 34.2975C95.4185 34.2975 95.1601 34.2432 94.9534 34.1319C94.7466 34.0207 94.5916 33.8604 94.4882 33.6459C94.3849 33.4338 94.3358 33.1726 94.3358 32.8649V30.8014H93.7932C93.7027 30.8014 93.6304 30.778 93.5839 30.7315C93.5348 30.685 93.5115 30.6229 93.5115 30.5402C93.5115 30.4574 93.5348 30.398 93.5839 30.354C93.633 30.31 93.7027 30.2894 93.7932 30.2894H94.3358V29.3584C94.3358 29.2498 94.3642 29.167 94.4236 29.1127C94.4831 29.0559 94.5632 29.0274 94.6665 29.0274C94.7699 29.0274 94.8474 29.0559 94.9043 29.1127C94.9611 29.1696 94.9895 29.2524 94.9895 29.3584V30.2894H96.0076C96.0981 30.2894 96.1704 30.31 96.2169 30.354C96.2634 30.398 96.2893 30.46 96.2893 30.5402C96.2893 30.6203 96.266 30.685 96.2169 30.7315C96.1678 30.778 96.0981 30.8014 96.0076 30.8014H94.9895V32.8002C94.9895 33.108 95.0541 33.3406 95.1833 33.5011C95.3125 33.6614 95.5218 33.7389 95.8138 33.7389C95.9172 33.7389 96.005 33.7285 96.0774 33.7053C96.1497 33.6846 96.2118 33.6717 96.2583 33.6717C96.3074 33.6665 96.3461 33.682 96.3797 33.7208C96.4133 33.7597 96.4288 33.8243 96.4288 33.9148C96.4288 33.9794 96.4159 34.0389 96.3926 34.0932C96.3694 34.1475 96.3255 34.1837 96.2686 34.207C96.204 34.2277 96.1187 34.2483 96.0128 34.2664C95.9069 34.2845 95.8112 34.2949 95.726 34.2949V34.2975Z" fill="#D9DCF9"/>
<path d="M99.1782 34.2975C98.8603 34.2975 98.5968 34.2406 98.3901 34.1242C98.1833 34.0078 98.0257 33.8346 97.9198 33.6018C97.8138 33.3692 97.7621 33.0822 97.7621 32.7356V30.5686C97.7621 30.4548 97.7906 30.372 97.8474 30.3178C97.9043 30.2635 97.9844 30.2376 98.0851 30.2376C98.1937 30.2376 98.2764 30.2661 98.3306 30.3178C98.3875 30.372 98.4159 30.4548 98.4159 30.5686V32.7278C98.4159 33.0717 98.4882 33.3303 98.6304 33.5011C98.7725 33.6717 98.9973 33.7571 99.3048 33.7571C99.6381 33.7571 99.912 33.6433 100.121 33.4183C100.331 33.1907 100.437 32.8959 100.437 32.5287V30.5712C100.437 30.4574 100.465 30.3746 100.522 30.3204C100.579 30.2661 100.661 30.2402 100.767 30.2402C100.873 30.2402 100.948 30.2687 101.005 30.3204C101.062 30.3746 101.09 30.4574 101.09 30.5712V33.9458C101.09 34.1734 100.984 34.2845 100.775 34.2845C100.672 34.2845 100.594 34.2561 100.537 34.1966C100.481 34.1371 100.452 34.0544 100.452 33.9458V33.2088L100.558 33.3226C100.45 33.6407 100.274 33.8837 100.028 34.0518C99.7828 34.2199 99.4986 34.3027 99.1756 34.3027L99.1782 34.2975Z" fill="#D9DCF9"/>
<path d="M104.628 34.2975C104.276 34.2975 103.972 34.2147 103.711 34.0467C103.45 33.8785 103.248 33.6433 103.103 33.3381C102.961 33.033 102.889 32.6736 102.889 32.2572C102.889 31.8408 102.961 31.4737 103.103 31.1685C103.245 30.8634 103.45 30.6281 103.711 30.4652C103.972 30.2997 104.279 30.2195 104.628 30.2195C104.977 30.2195 105.289 30.3074 105.543 30.4858C105.796 30.6643 105.966 30.9047 106.052 31.2048H105.964V28.7947C105.964 28.6861 105.992 28.6033 106.049 28.549C106.106 28.4947 106.189 28.4637 106.294 28.4637C106.398 28.4637 106.475 28.4921 106.532 28.549C106.589 28.6059 106.617 28.6887 106.617 28.7947V33.9406C106.617 34.0493 106.589 34.1319 106.537 34.1915C106.483 34.2509 106.403 34.2793 106.294 34.2793C106.186 34.2793 106.114 34.2509 106.057 34.1915C106 34.1319 105.972 34.0493 105.972 33.9406V33.1726L106.059 33.2864C105.974 33.5941 105.801 33.8398 105.545 34.0233C105.289 34.207 104.984 34.2975 104.628 34.2975ZM104.765 33.77C105.008 33.77 105.22 33.7105 105.403 33.5915C105.586 33.4725 105.729 33.2993 105.827 33.0743C105.928 32.8468 105.977 32.5753 105.977 32.2572C105.977 31.7659 105.868 31.3909 105.649 31.1323C105.431 30.8737 105.134 30.7444 104.762 30.7444C104.514 30.7444 104.3 30.8014 104.119 30.9177C103.938 31.034 103.798 31.2048 103.698 31.4271C103.597 31.6521 103.548 31.9262 103.548 32.2572C103.548 32.7433 103.659 33.1157 103.878 33.3769C104.098 33.6381 104.393 33.77 104.76 33.77H104.765Z" fill="#D9DCF9"/>
<path d="M108.979 29.3455C108.845 29.3455 108.739 29.3093 108.664 29.2369C108.589 29.1644 108.55 29.0662 108.55 28.9421C108.55 28.818 108.589 28.7145 108.664 28.6473C108.739 28.58 108.845 28.5464 108.979 28.5464C109.114 28.5464 109.225 28.58 109.3 28.6473C109.372 28.7145 109.408 28.8128 109.408 28.9421C109.408 29.0714 109.372 29.1644 109.3 29.2369C109.227 29.3093 109.121 29.3455 108.979 29.3455ZM108.979 34.2638C108.871 34.2638 108.791 34.2328 108.736 34.1708C108.682 34.1087 108.656 34.0207 108.656 33.907V30.5971C108.656 30.4833 108.682 30.398 108.736 30.3385C108.791 30.279 108.871 30.2506 108.979 30.2506C109.088 30.2506 109.163 30.2816 109.222 30.3385C109.282 30.3954 109.31 30.4833 109.31 30.5971V33.907C109.31 34.0207 109.282 34.1087 109.225 34.1708C109.168 34.2328 109.085 34.2638 108.979 34.2638Z" fill="#D9DCF9"/>
<path d="M112.972 34.2975C112.589 34.2975 112.258 34.2147 111.977 34.0467C111.698 33.8785 111.481 33.6433 111.326 33.3381C111.173 33.033 111.096 32.6736 111.096 32.2572C111.096 31.9443 111.139 31.6624 111.225 31.4116C111.31 31.1608 111.437 30.9462 111.605 30.7677C111.773 30.5893 111.969 30.4522 112.199 30.3591C112.429 30.2661 112.685 30.2169 112.972 30.2169C113.354 30.2169 113.685 30.2997 113.966 30.4678C114.248 30.6358 114.462 30.8712 114.617 31.1763C114.773 31.4815 114.847 31.8408 114.847 32.2572C114.847 32.5701 114.804 32.8494 114.718 33.0977C114.633 33.3458 114.506 33.5605 114.338 33.7415C114.17 33.9225 113.974 34.0596 113.744 34.1552C113.514 34.2483 113.258 34.2975 112.972 34.2975ZM112.972 33.77C113.214 33.77 113.426 33.7105 113.61 33.5915C113.793 33.4725 113.935 33.2993 114.034 33.0743C114.134 32.8468 114.183 32.5753 114.183 32.2572C114.183 31.7659 114.075 31.3909 113.855 31.1323C113.636 30.8737 113.341 30.7444 112.969 30.7444C112.721 30.7444 112.506 30.8014 112.326 30.9177C112.145 31.034 112.005 31.2048 111.904 31.4271C111.804 31.6521 111.754 31.9262 111.754 32.2572C111.754 32.7433 111.866 33.1157 112.085 33.3769C112.305 33.6381 112.599 33.77 112.966 33.77H112.972Z" fill="#D9DCF9"/>
</g>
</g>
</svg>
